<?xml version="1.0" encoding="UTF-8"?>
<svg id="Layer_2" data-name="Layer 2" xmlns="http://www.w3.org/2000/svg" viewBox="0 0 209.41 210.07">
  <defs>
    <style>
      .cls-1 {
        fill: #fff;
      }

      .cls-2 {
        fill: #09435b;
      }

      .cls-3 {
        fill: #f04d4e;
      }

      .cls-4 {
        fill: #58585a;
      }

      .cls-5 {
        fill: #333;
      }

      .cls-6 {
        fill: #e6e6e6;
      }

      .cls-7 {
        fill: #facc39;
      }

      .cls-8 {
        fill: #d84850;
      }

      .cls-9 {
        fill: #929397;
      }
    </style>
  </defs>
  <g id="Layer_1-2" data-name="Layer 1">
    <g>
      <circle class="cls-3" cx="104.7" cy="104.7" r="104.7"/>
      <path class="cls-8" d="m209.12,97.63l-38.45-38.62L41.98,138.38v10.99h-18.37l-.68.47,58.33,56.94c7.78,2.46,11.2,3.28,23.43,3.28,57.83,0,104.7-46.87,104.7-104.7,0-2.61-.1-5.18-.29-7.74Z"/>
      <rect class="cls-1" x="39.98" y="60.38" width="129" height="85"/>
      <g>
        <path class="cls-6" d="m22.38,147.02v2.6s2.34,2.6,7.81,2.6h152.21s4.16-1.3,5.98-2.6v-2.6H22.38Z"/>
        <g>
          <path class="cls-9" d="m40.82,58.23s.02,0,.03,0c-.01,0-.02,0-.03,0Z"/>
          <path class="cls-9" d="m40.03,58.55s.08-.05.13-.07c-.04.02-.08.05-.13.07Z"/>
          <path class="cls-9" d="m38.78,144.59c0-.1-.02-.18-.02-.29,0,.1,0,.19.02.29Z"/>
          <path class="cls-9" d="m41.04,58.2c.11-.01.21-.02.33-.02-.11,0-.22,0-.33.02Z"/>
          <path class="cls-5" d="m169.38,58.18h-98.55l6.12,5.72h89.83v77.8h-6.61l5.57,5.2h3.64c1.44,0,2.6-1.17,2.6-2.6V60.78c0-1.44-1.16-2.6-2.6-2.6Z"/>
          <path class="cls-9" d="m39.97,58.59c-.72.46-1.2,1.27-1.2,2.19,0,0,.15-1.46,1.2-2.19Z"/>
          <path class="cls-4" d="m38.78,144.59c.17,2.55,2.59,2.31,2.59,2.31-1.34,0-2.44-1.01-2.59-2.31Z"/>
          <path class="cls-4" d="m40.15,58.48c.21-.11.43-.19.67-.24-.25.05-.48.14-.67.24Z"/>
          <path class="cls-4" d="m39.97,58.59s.04-.02.06-.04c-.02.01-.04.02-.06.04Z"/>
          <path class="cls-4" d="m40.86,58.23c.06-.01.12-.02.18-.03-.06,0-.12.02-.18.03Z"/>
          <path class="cls-4" d="m43.19,141.7V63.9h33.76l-6.12-5.72h-29.46c-.12,0-.22.01-.33.02-.06,0-.12.02-.18.03-.01,0-.02,0-.03,0-.24.05-.46.13-.67.24-.04.02-.09.05-.13.07-.02.01-.04.02-.06.04-1.05.73-1.2,2.19-1.2,2.19v83.52c0,.1.01.19.02.29.14,1.3,1.25,2.31,2.59,2.31h124.37l-5.57-5.2H43.19Z"/>
        </g>
      </g>
      <path class="cls-2" d="m177.96,90.7c0,4.13-3.35,7.47-7.47,7.47h-42.6c-4.13,0-7.47-3.35-7.47-7.47v-42.6c0-4.13,3.35-7.47,7.47-7.47h42.6c4.13,0,7.47,3.35,7.47,7.47v42.6Z"/>
      <path class="cls-7" d="m120.41,102.07c0,4.3-3.49,7.79-7.79,7.79h-44.67c-4.3,0-7.79-3.49-7.79-7.79v-44.67c0-4.3,3.49-7.79,7.79-7.79h44.67c4.3,0,7.79,3.49,7.79,7.79v44.67Z"/>
      <polygon class="cls-2" points="120.41 72.45 143.4 92.15 120.41 111.86 120.41 72.45"/>
      <polygon class="cls-7" points="120.13 124.66 96.16 104.1 120.13 83.55 120.13 124.66"/>
      <path class="cls-2" d="m109.98,68.85c0,1.4-1.13,2.52-2.53,2.52h-32.95c-1.4,0-2.53-1.13-2.53-2.52v-.95c0-1.4,1.13-2.52,2.53-2.52h32.95c1.4,0,2.53,1.13,2.53,2.52v.95Z"/>
      <path class="cls-2" d="m109.98,80.85c0,1.4-1.13,2.52-2.53,2.52h-32.95c-1.4,0-2.53-1.13-2.53-2.52v-.95c0-1.4,1.13-2.52,2.53-2.52h32.95c1.4,0,2.53,1.13,2.53,2.52v.95Z"/>
      <path class="cls-2" d="m90.78,93.38c0,1.46-1.05,3-2.36,3h-14.81c-1.3,0-2.36-1.54-2.36-3h0c0-1.46,1.05-3,2.36-3h14.81c1.3,0,2.36,1.54,2.36,3h0Z"/>
      <path class="cls-7" d="m167.54,57.4c0,1.4-1.13,2.52-2.53,2.52h-33.33c-1.4,0-2.53-1.13-2.53-2.52v-.34c0-1.4,1.13-2.52,2.53-2.52h33.33c1.4,0,2.53,1.13,2.53,2.52v.34Z"/>
      <path class="cls-7" d="m167.54,70.87c0,1.4-1.13,2.52-2.53,2.52h-33.33c-1.4,0-2.53-1.13-2.53-2.52v-.34c0-1.4,1.13-2.52,2.53-2.52h33.33c1.4,0,2.53,1.13,2.53,2.52v.34Z"/>
      <path class="cls-7" d="m149.36,83.83c0,1.3-1.05,2.36-2.36,2.36h-14.81c-1.3,0-2.36-1.05-2.36-2.36h0c0-1.3,1.05-2.36,2.36-2.36h14.81c1.3,0,2.36,1.06,2.36,2.36h0Z"/>
    </g>
  </g>
</svg>