<?xml version="1.0" encoding="UTF-8"?>
<svg id="Layer_2" data-name="Layer 2" xmlns="http://www.w3.org/2000/svg" viewBox="0 0 209.41 209.41">
  <defs>
    <style>
      .cls-1 {
        fill: #b6d5d0;
      }

      .cls-2 {
        fill: #09435b;
      }

      .cls-3 {
        fill: #f04d4e;
      }

      .cls-4 {
        fill: #333;
      }

      .cls-5 {
        fill: #2b2b2b;
      }

      .cls-6 {
        fill: #d8aeaf;
      }

      .cls-7 {
        fill: #c7928e;
      }

      .cls-8 {
        fill: #d84850;
      }

      .cls-9 {
        fill: #093c4c;
      }

      .cls-10 {
        fill: #fecccb;
      }
    </style>
  </defs>
  <g id="Layer_1-2" data-name="Layer 1">
    <g>
      <circle class="cls-2" cx="104.7" cy="104.7" r="104.7"/>
      <path class="cls-9" d="m189.9,165.33l-25.3-30.01-123.93,25.62,47.1,47.1c5.51.9,11.16,1.37,16.92,1.37,36.4,0,66.44-15.89,85.2-44.08Z"/>
      <path class="cls-3" d="m172.93,158.61v-8.96c0-18.4-32.9-23.45-32.9-23.45l-32.92-.03-33.09.03s-33.07,5.06-33.07,23.45v8.96s-.14,6.78,10.51,7.02,55.57,0,55.57,0c0,0,44.87.24,55.52,0,10.65-.24,10.37-7.02,10.37-7.02Z"/>
      <path class="cls-8" d="m119.4,126.02h-12.29l-33.37.1s-33.35,5.13-33.35,23.53v8.96s.13,6.78,10.78,7.02,10.82-.1,10.82-.1l32.58-24.51h24.82v-15h0Z"/>
      <rect class="cls-7" x="86.78" y="105.6" width="40.42" height="25.17"/>
      <path class="cls-4" d="m145.12,71.1s3.29,15.38-8.71,24.58v-27.6l8.71,3.02Z"/>
      <path class="cls-4" d="m67.69,71.1s-2.29,15.38,8.71,24.58v-27.6l-8.71,3.02Z"/>
      <path class="cls-10" d="m76.61,68.32v28.08s6.77,24.21,30.62,24.21,30.39-24.69,30.39-24.69v-25.66s1.44-36.55-30.39-36.55-30.62,34.61-30.62,34.61Z"/>
      <path class="cls-6" d="m107.24,120.61c-23.72,0-30.5-24.21-30.5-24.21v-28.08s-1.21-34.62,30.5-34.62v86.9Z"/>
      <path class="cls-5" d="m94.04,53.55s5.08,20.33,52.29,20.33c0,0-.74-40.67-39.1-40.67s-39.57,40.67-39.57,40.67c0,0,15.98-4.36,26.39-20.33Z"/>
      <polygon class="cls-1" points="86.6 112.91 74 125.99 94.52 141.24 107.6 131.01 86.6 112.91"/>
      <polygon class="cls-1" points="127.2 112.91 139.79 125.99 119.27 141.24 106.19 131.01 127.2 112.91"/>
    </g>
  </g>
</svg>