<?xml version="1.0" encoding="UTF-8"?>
<svg id="Layer_2" data-name="Layer 2" xmlns="http://www.w3.org/2000/svg" viewBox="0 0 209.41 209.41">
  <defs>
    <style>
      .cls-1 {
        fill: #55c1cb;
      }

      .cls-2 {
        isolation: isolate;
      }

      .cls-2, .cls-3 {
        opacity: .5;
      }

      .cls-2, .cls-4 {
        fill: #b3b3b3;
      }

      .cls-5 {
        fill: #27a5a8;
      }

      .cls-6 {
        fill: #e6e6e6;
      }

      .cls-7 {
        fill: #1c767e;
      }

      .cls-3 {
        fill: none;
      }

      .cls-8 {
        fill: #15595f;
      }

      .cls-9 {
        fill: #259999;
      }

      .cls-10 {
        fill: #2ab2be;
      }

      .cls-11 {
        fill: #f2f2f2;
      }
    </style>
  </defs>
  <g id="Layer_1-2" data-name="Layer 1">
    <g>
      <circle class="cls-10" cx="104.7" cy="104.7" r="104.7"/>
      <path class="cls-5" d="m117.32,48.78l-77.35,83.41,77.15,76.48c10.12-1.2,19.81-3.84,28.83-7.71,24.65-10.58,44.41-30.35,54.99-54.99,1.38-3.22,2.61-6.51,3.67-9.89L117.32,48.78Z"/>
      <path class="cls-9" d="m208.59,117.83l-46.82-46.82-78.36,89.13,45.18,46.53c42.16-9.84,74.53-45.16,79.99-88.84Z"/>
      <g>
        <path class="cls-7" d="m118.2,130.61c0,2.85-2.31,5.15-5.15,5.15H45.87c-2.85,0-5.15-2.31-5.15-5.15v-59.81l26.07-24.14h46.26c2.85,0,5.15,2.31,5.15,5.15v78.8h0Z"/>
        <polygon class="cls-1" points="66.27 45.99 66.27 70.06 40.25 70.06 66.27 45.99"/>
        <polygon class="cls-8" points="40.92 95.1 40.92 70.73 66.94 70.73 40.92 95.1"/>
        <g>
          <path class="cls-8" d="m105.88,125.06h-46.57c-.61,0-1.11-.5-1.11-1.11v-39.81c0-.61.5-1.11,1.11-1.11h46.57c.61,0,1.11.5,1.11,1.11v39.81c0,.61-.5,1.11-1.11,1.11Zm-45.45-2.23h44.34v-37.58h-44.34v37.58Z"/>
          <path class="cls-8" d="m70.55,125.06c-.61,0-1.11-.5-1.11-1.11v-39.81c0-.61.5-1.11,1.11-1.11s1.11.5,1.11,1.11v39.81c0,.61-.5,1.11-1.11,1.11Z"/>
          <path class="cls-8" d="m105.88,95.41h-46.57c-.61,0-1.11-.5-1.11-1.11s.5-1.11,1.11-1.11h46.57c.61,0,1.11.5,1.11,1.11,0,.62-.5,1.11-1.11,1.11Z"/>
          <path class="cls-8" d="m105.88,105.16h-46.57c-.61,0-1.11-.5-1.11-1.11s.5-1.11,1.11-1.11h46.57c.61,0,1.11.5,1.11,1.11,0,.62-.5,1.11-1.11,1.11Z"/>
          <path class="cls-8" d="m105.88,114.63h-46.57c-.61,0-1.11-.5-1.11-1.11s.5-1.11,1.11-1.11h46.57c.61,0,1.11.5,1.11,1.11,0,.61-.5,1.11-1.11,1.11Z"/>
        </g>
      </g>
      <g>
        <path class="cls-11" d="m164.21,158.5c0,2.96-2.4,5.37-5.37,5.37h-70c-2.96,0-5.37-2.4-5.37-5.37v-62.32l27.16-25.15h48.2c2.96,0,5.37,2.4,5.37,5.37v82.1h0Z"/>
        <polygon class="cls-6" points="110.6 71.03 110.6 96.11 83.48 96.11 110.6 71.03"/>
        <polygon class="cls-2" points="83.48 121.51 83.48 96.12 110.59 96.12 83.48 121.51"/>
        <g class="cls-3">
          <g>
            <path class="cls-4" d="m146.93,123.25h-40.96c-.69,0-1.24-.67-1.24-1.51s.56-1.51,1.24-1.51h40.96c.69,0,1.24.67,1.24,1.51s-.56,1.51-1.24,1.51Z"/>
            <path class="cls-4" d="m146.93,135.35h-40.96c-.69,0-1.24-.67-1.24-1.51s.56-1.51,1.24-1.51h40.96c.69,0,1.24.67,1.24,1.51,0,.83-.56,1.51-1.24,1.51Z"/>
            <path class="cls-4" d="m126.45,147.49h-20.48c-.69,0-1.24-.67-1.24-1.51s.56-1.51,1.24-1.51h20.48c.69,0,1.24.67,1.24,1.51s-.56,1.51-1.24,1.51Z"/>
          </g>
          <path class="cls-4" d="m147.27,110.68h-40.96c-.69,0-1.24-.68-1.24-1.51s.56-1.51,1.24-1.51h40.96c.69,0,1.24.68,1.24,1.51s-.56,1.51-1.24,1.51Z"/>
        </g>
      </g>
    </g>
  </g>
</svg>