<?xml version="1.0" encoding="UTF-8"?>
<svg id="Layer_2" data-name="Layer 2" xmlns="http://www.w3.org/2000/svg" viewBox="0 0 209.41 209.48">
  <defs>
    <style>
      .cls-1 {
        fill: #efbf3a;
      }

      .cls-2 {
        fill: #58585a;
      }

      .cls-3 {
        fill: #00828c;
        isolation: isolate;
        opacity: .5;
      }

      .cls-4 {
        fill: #5ccfd5;
      }

      .cls-5 {
        fill: #333;
      }

      .cls-6 {
        fill: #e6e6e6;
      }

      .cls-7 {
        fill: #facc39;
      }

      .cls-8 {
        fill: #00adbb;
      }

      .cls-9 {
        fill: #929397;
      }
    </style>
  </defs>
  <g id="Layer_1-2" data-name="Layer 1">
    <g>
      <circle class="cls-7" cx="104.7" cy="104.7" r="104.7"/>
      <path class="cls-1" d="m209.12,96.96l-38.52-38.62L41.85,137.71v11.67h-18.23l-.68.13,58.33,56.77c7.78,2.46,11.2,3.19,23.43,3.19,57.83,0,104.7-46.91,104.7-104.74,0-2.6-.1-5.22-.29-7.78Z"/>
      <g>
        <rect class="cls-8" x="40.84" y="61.38" width="127" height="82"/>
        <polygon class="cls-3" points="138.83 80.63 134.68 99.92 124.82 89.95 119.73 109.34 110.26 99.74 104.85 104.4 96.13 95.55 90.71 116.27 82.28 107.67 76.85 128.53 70.94 133.62 76.9 141.48 89.41 141.56 92.53 144.8 118.84 144.64 118.84 141.75 129.84 141.82 129.84 141.6 135.68 141.56 135.64 141.68 166.84 141.49 166.84 109.02 138.83 80.63"/>
        <g>
          <rect class="cls-4" x="70.84" y="107.38" width="11" height="26"/>
          <rect class="cls-4" x="85.84" y="95.38" width="10" height="38"/>
          <rect class="cls-4" x="98.84" y="99.38" width="11" height="34"/>
          <rect class="cls-4" x="113.84" y="89.38" width="12" height="44"/>
          <rect class="cls-4" x="127.84" y="81.38" width="10" height="52"/>
        </g>
        <g>
          <path class="cls-6" d="m21.7,146.35v2.6s2.34,2.6,7.81,2.6h152.21s4.16-1.3,5.98-2.6v-2.6H21.7Z"/>
          <g>
            <path class="cls-9" d="m40.15,57.56s.02,0,.04,0c-.01,0-.02,0-.04,0Z"/>
            <path class="cls-9" d="m39.35,57.88s.08-.05.13-.07c-.04.02-.08.05-.13.07Z"/>
            <path class="cls-9" d="m38.11,143.91c0-.1-.02-.18-.02-.29,0,.1,0,.19.02.29Z"/>
            <path class="cls-9" d="m40.37,57.52c.11-.01.21-.02.33-.02-.11,0-.22,0-.33.02Z"/>
            <path class="cls-5" d="m168.71,57.5h-98.55l6.12,5.72h89.83v77.8h-6.61l5.57,5.2h3.64c1.44,0,2.6-1.17,2.6-2.6V60.1c0-1.44-1.17-2.6-2.6-2.6Z"/>
            <path class="cls-9" d="m39.3,57.91c-.72.46-1.2,1.27-1.2,2.19,0,0,.15-1.46,1.2-2.19Z"/>
            <path class="cls-2" d="m38.11,143.91c.17,2.55,2.58,2.31,2.58,2.31-1.34,0-2.44-1.01-2.58-2.31Z"/>
            <path class="cls-2" d="m39.48,57.8c.21-.11.43-.19.67-.24-.25.05-.47.14-.67.24Z"/>
            <path class="cls-2" d="m39.3,57.91s.04-.02.06-.04c-.02.01-.04.02-.06.04Z"/>
            <path class="cls-2" d="m40.18,57.55c.06-.01.12-.02.18-.03-.06,0-.12.02-.18.03Z"/>
            <path class="cls-2" d="m42.52,141.02V63.23h33.76l-6.12-5.72h-29.46c-.12,0-.22.01-.33.02-.06,0-.12.02-.18.03-.01,0-.02,0-.04,0-.24.05-.46.13-.67.24-.04.02-.09.05-.13.07-.02.01-.04.02-.06.04-1.06.73-1.2,2.19-1.2,2.19v83.52c0,.1.01.19.02.29.14,1.3,1.25,2.31,2.58,2.31h124.37l-5.57-5.2H42.52Z"/>
          </g>
        </g>
      </g>
    </g>
  </g>
</svg>